<svg width="67" height="43" viewBox="0 0 67 43" fill="none" xmlns="http://www.w3.org/2000/svg">
<rect width="67" height="43" fill="#C1C1C1"/>
<path d="M19.4091 27V15.3636H20.8182V25.75H26.2273V27H19.4091ZM31.7727 27.1818C30.9848 27.1818 30.2936 26.9943 29.6989 26.6193C29.108 26.2443 28.6458 25.7197 28.3125 25.0455C27.983 24.3712 27.8182 23.5833 27.8182 22.6818C27.8182 21.7727 27.983 20.9792 28.3125 20.3011C28.6458 19.6231 29.108 19.0966 29.6989 18.7216C30.2936 18.3466 30.9848 18.1591 31.7727 18.1591C32.5606 18.1591 33.25 18.3466 33.8409 18.7216C34.4356 19.0966 34.8977 19.6231 35.2273 20.3011C35.5606 20.9792 35.7273 21.7727 35.7273 22.6818C35.7273 23.5833 35.5606 24.3712 35.2273 25.0455C34.8977 25.7197 34.4356 26.2443 33.8409 26.6193C33.25 26.9943 32.5606 27.1818 31.7727 27.1818ZM31.7727 25.9773C32.3712 25.9773 32.8636 25.8239 33.25 25.517C33.6364 25.2102 33.9223 24.8068 34.108 24.3068C34.2936 23.8068 34.3864 23.2652 34.3864 22.6818C34.3864 22.0985 34.2936 21.5549 34.108 21.0511C33.9223 20.5473 33.6364 20.1402 33.25 19.8295C32.8636 19.5189 32.3712 19.3636 31.7727 19.3636C31.1742 19.3636 30.6818 19.5189 30.2955 19.8295C29.9091 20.1402 29.6231 20.5473 29.4375 21.0511C29.2519 21.5549 29.1591 22.0985 29.1591 22.6818C29.1591 23.2652 29.2519 23.8068 29.4375 24.3068C29.6231 24.8068 29.9091 25.2102 30.2955 25.517C30.6818 25.8239 31.1742 25.9773 31.7727 25.9773ZM41.2969 30.4545C40.6491 30.4545 40.0923 30.3712 39.6264 30.2045C39.1605 30.0417 38.7723 29.8258 38.4616 29.5568C38.1548 29.2917 37.9105 29.0076 37.7287 28.7045L38.7969 27.9545C38.9181 28.1136 39.0715 28.2955 39.2571 28.5C39.4427 28.7083 39.6965 28.8883 40.0185 29.0398C40.3442 29.1951 40.7704 29.2727 41.2969 29.2727C42.0014 29.2727 42.5829 29.1023 43.0412 28.7614C43.4995 28.4205 43.7287 27.8864 43.7287 27.1591V25.3864H43.6151C43.5166 25.5455 43.3764 25.7424 43.1946 25.9773C43.0166 26.2083 42.759 26.4148 42.4219 26.5966C42.0885 26.7746 41.6378 26.8636 41.0696 26.8636C40.3651 26.8636 39.7325 26.697 39.1719 26.3636C38.6151 26.0303 38.1738 25.5455 37.848 24.9091C37.526 24.2727 37.3651 23.5 37.3651 22.5909C37.3651 21.697 37.5223 20.9186 37.8366 20.2557C38.151 19.589 38.5885 19.0739 39.1491 18.7102C39.7098 18.3428 40.3575 18.1591 41.0923 18.1591C41.6605 18.1591 42.1113 18.2538 42.4446 18.4432C42.7817 18.6288 43.0393 18.8409 43.2173 19.0795C43.3991 19.3144 43.5393 19.5076 43.6378 19.6591H43.7741V18.2727H45.0696V27.25C45.0696 28 44.8991 28.6098 44.5582 29.0795C44.2211 29.553 43.7666 29.8996 43.1946 30.1193C42.6264 30.3428 41.9938 30.4545 41.2969 30.4545ZM41.2514 25.6591C41.7893 25.6591 42.2438 25.536 42.6151 25.2898C42.9863 25.0436 43.2685 24.6894 43.4616 24.2273C43.6548 23.7652 43.7514 23.2121 43.7514 22.5682C43.7514 21.9394 43.6567 21.3845 43.4673 20.9034C43.2779 20.4223 42.9976 20.0455 42.6264 19.7727C42.2552 19.5 41.7969 19.3636 41.2514 19.3636C40.6832 19.3636 40.2098 19.5076 39.831 19.7955C39.456 20.0833 39.1738 20.4697 38.9844 20.9545C38.7988 21.4394 38.706 21.9773 38.706 22.5682C38.706 23.1742 38.8007 23.7102 38.9901 24.1761C39.1832 24.6383 39.4673 25.0019 39.8423 25.267C40.2211 25.5284 40.6908 25.6591 41.2514 25.6591ZM51.0696 27.1818C50.2817 27.1818 49.5904 26.9943 48.9957 26.6193C48.4048 26.2443 47.9427 25.7197 47.6094 25.0455C47.2798 24.3712 47.1151 23.5833 47.1151 22.6818C47.1151 21.7727 47.2798 20.9792 47.6094 20.3011C47.9427 19.6231 48.4048 19.0966 48.9957 18.7216C49.5904 18.3466 50.2817 18.1591 51.0696 18.1591C51.8575 18.1591 52.5469 18.3466 53.1378 18.7216C53.7325 19.0966 54.1946 19.6231 54.5241 20.3011C54.8575 20.9792 55.0241 21.7727 55.0241 22.6818C55.0241 23.5833 54.8575 24.3712 54.5241 25.0455C54.1946 25.7197 53.7325 26.2443 53.1378 26.6193C52.5469 26.9943 51.8575 27.1818 51.0696 27.1818ZM51.0696 25.9773C51.6681 25.9773 52.1605 25.8239 52.5469 25.517C52.9332 25.2102 53.2192 24.8068 53.4048 24.3068C53.5904 23.8068 53.6832 23.2652 53.6832 22.6818C53.6832 22.0985 53.5904 21.5549 53.4048 21.0511C53.2192 20.5473 52.9332 20.1402 52.5469 19.8295C52.1605 19.5189 51.6681 19.3636 51.0696 19.3636C50.4711 19.3636 49.9787 19.5189 49.5923 19.8295C49.206 20.1402 48.92 20.5473 48.7344 21.0511C48.5488 21.5549 48.456 22.0985 48.456 22.6818C48.456 23.2652 48.5488 23.8068 48.7344 24.3068C48.92 24.8068 49.206 25.2102 49.5923 25.517C49.9787 25.8239 50.4711 25.9773 51.0696 25.9773Z" fill="black"/>
</svg>
